<svg width="16" height="17" viewBox="0 0 16 17" fill="none" xmlns="http://www.w3.org/2000/svg">
<path fill-rule="evenodd" clip-rule="evenodd" d="M14 5.5H6C5.72386 5.5 5.5 5.72386 5.5 6V15C5.5 15.2761 5.72386 15.5 6 15.5H14C14.2761 15.5 14.5 15.2761 14.5 15V6C14.5 5.72386 14.2761 5.5 14 5.5ZM6 4C4.89543 4 4 4.89543 4 6V15C4 16.1046 4.89543 17 6 17H14C15.1046 17 16 16.1046 16 15V6C16 4.89543 15.1046 4 14 4H6Z" fill="inherit"/>
<path fill-rule="evenodd" clip-rule="evenodd" d="M2 1.5H10C10.2761 1.5 10.5 1.72386 10.5 2V3H12V2C12 0.895431 11.1046 0 10 0H2C0.895431 0 0 0.89543 0 2V11C0 12.1046 0.895431 13 2 13H3V11.5H2C1.72386 11.5 1.5 11.2761 1.5 11V2C1.5 1.72386 1.72386 1.5 2 1.5Z" fill="inherit"/>
<rect x="7" y="12" width="6" height="1.5" rx="0.75" fill="inherit"/>
<rect x="7" y="8" width="6" height="1.5" rx="0.75" fill="inherit"/>
</svg>
