<svg width="36" height="68" viewBox="0 0 36 68" fill="none" xmlns="http://www.w3.org/2000/svg">
<path d="M17.3616 43.1416C7.77963 43.1416 0 35.4429 0 26.0012C0 16.5594 7.77963 8.86074 17.3616 8.86074C26.9436 8.86074 34.7232 16.5413 34.7232 26.0012C34.7232 35.4611 26.9436 43.1416 17.3616 43.1416ZM17.3616 15.9965C11.7706 15.9965 7.22788 20.4814 7.22788 26.0012C7.22788 31.521 11.7706 36.0058 17.3616 36.0058C22.9527 36.0058 27.4954 31.521 27.4954 26.0012C27.4954 20.4814 22.9527 15.9965 17.3616 15.9965Z" fill="#1881CB"/>
<path d="M24.6079 67.7447V60.6089C26.208 60.6089 27.4954 59.3197 27.4954 57.7582C27.4954 56.1967 26.1896 54.9075 24.6079 54.9075H1.71041V47.7717H24.6079C30.1805 47.7717 34.7232 52.2565 34.7232 57.7582C34.7232 63.2598 30.1805 67.7447 24.6079 67.7447Z" fill="#1881CB"/>
<path d="M31.4312 7.7713C33.6048 7.7713 35.3669 6.03164 35.3669 3.88565C35.3669 1.73967 33.6048 0 31.4312 0C29.2575 0 27.4954 1.73967 27.4954 3.88565C27.4954 6.03164 29.2575 7.7713 31.4312 7.7713Z" fill="#1881CB"/>
</svg>
