<svg width="20" height="20" viewBox="0 0 20 20" fill="none" xmlns="http://www.w3.org/2000/svg">
<rect x="0.5" y="0.5" width="19" height="19" rx="9.5" fill="#F2F4FF" stroke="#7B8FF9"/>
<path fill-rule="evenodd" clip-rule="evenodd" d="M10.5 5.5C10.5 5.22386 10.2761 5 10 5C9.72386 5 9.5 5.22386 9.5 5.5L9.5 9.5H5.5C5.22386 9.5 5 9.72386 5 10C5 10.2761 5.22386 10.5 5.5 10.5H9.5L9.5 14.5C9.5 14.7761 9.72386 15 10 15C10.2761 15 10.5 14.7761 10.5 14.5V10.5H14.5C14.7761 10.5 15 10.2761 15 10C15 9.72386 14.7761 9.5 14.5 9.5H10.5V5.5Z" fill="#7B8FF9"/>
</svg>
