<svg xmlns="http://www.w3.org/2000/svg" width="28" height="28" viewBox="0 0 32 32" fill="none">
<path d="M16 15C14.9 15 13.9583 14.6083 13.175 13.825C12.3917 13.0417 12 12.1 12 11C12 9.9 12.3917 8.95833 13.175 8.175C13.9583 7.39167 14.9 7 16 7C17.1 7 18.0417 7.39167 18.825 8.175C19.6083 8.95833 20 9.9 20 11C20 12.1 19.6083 13.0417 18.825 13.825C18.0417 14.6083 17.1 15 16 15ZM8 23V20.2C8 19.6333 8.14583 19.1125 8.4375 18.6375C8.72917 18.1625 9.11667 17.8 9.6 17.55C10.6333 17.0333 11.6833 16.6458 12.75 16.3875C13.8167 16.1292 14.9 16 16 16C17.1 16 18.1833 16.1292 19.25 16.3875C20.3167 16.6458 21.3667 17.0333 22.4 17.55C22.8833 17.8 23.2708 18.1625 23.5625 18.6375C23.8542 19.1125 24 19.6333 24 20.2V23H8Z" fill="white" fill-opacity="0.5"/>
</svg>