<svg width="17" height="20" viewBox="0 0 17 20" fill="none" xmlns="http://www.w3.org/2000/svg">
<path d="M7.5 17H9.5V12.825L11.1 14.425L12.5 13L8.5 9L4.5 13L5.925 14.4L7.5 12.825V17ZM2.5 20C1.95 20 1.47917 19.8042 1.0875 19.4125C0.695833 19.0208 0.5 18.55 0.5 18V2C0.5 1.45 0.695833 0.979167 1.0875 0.5875C1.47917 0.195833 1.95 0 2.5 0H10.5L16.5 6V18C16.5 18.55 16.3042 19.0208 15.9125 19.4125C15.5208 19.8042 15.05 20 14.5 20H2.5ZM9.5 7V2H2.5V18H14.5V7H9.5Z" fill="url(#paint0_linear_2769_11095)"/>
<defs>
<linearGradient id="paint0_linear_2769_11095" x1="0.499999" y1="20" x2="-0.885692" y2="1.28743" gradientUnits="userSpaceOnUse">
<stop stop-color="#2774FF"/>
<stop offset="1" stop-color="#2FDAC5"/>
</linearGradient>
</defs>
</svg>
