<svg width="16" height="16" viewBox="0 0 16 16" fill="none" xmlns="http://www.w3.org/2000/svg">
<path fill-rule="evenodd" clip-rule="evenodd" d="M11.7695 7C11.7695 9.76142 9.53096 12 6.76953 12C4.00811 12 1.76953 9.76142 1.76953 7C1.76953 4.23858 4.00811 2 6.76953 2C9.53096 2 11.7695 4.23858 11.7695 7ZM10.2489 11.8888C9.26753 12.5884 8.06659 13 6.76953 13C3.45582 13 0.769531 10.3137 0.769531 7C0.769531 3.68629 3.45582 1 6.76953 1C10.0832 1 12.7695 3.68629 12.7695 7C12.7695 8.29706 12.358 9.498 11.6583 10.4793C11.6792 10.4971 11.6995 10.5158 11.7193 10.5355L14.5477 13.364C14.9382 13.7545 14.9382 14.3877 14.5477 14.7782C14.1572 15.1687 13.524 15.1687 13.1335 14.7782L10.3051 11.9498C10.2853 11.93 10.2666 11.9097 10.2489 11.8888Z" fill="url(#paint0_linear_2338_7704)"/>
<defs>
<linearGradient id="paint0_linear_2338_7704" x1="0.76953" y1="15.0711" x2="-0.0119303" y2="1.87988" gradientUnits="userSpaceOnUse">
<stop stop-color="#2774FF"/>
<stop offset="1" stop-color="#2FDAC5"/>
</linearGradient>
</defs>
</svg>
