<svg xmlns="http://www.w3.org/2000/svg" width="30" height="30" viewBox="0 0 30 30" fill="none">
<path fill-rule="evenodd" clip-rule="evenodd" d="M20.5764 19.1046C18.7695 20.8945 16.2834 22 13.5391 22C8.01621 22 3.53906 17.5228 3.53906 12C3.53906 6.47715 8.01621 2 13.5391 2C19.0619 2 23.5391 6.47715 23.5391 12C23.5391 14.744 22.4339 17.2298 20.6444 19.0367C20.6328 19.0477 20.6214 19.0588 20.6101 19.0702C20.5987 19.0815 20.5875 19.093 20.5764 19.1046ZM20.4982 21.7772C18.5354 23.1767 16.1334 24 13.5391 24C6.91165 24 1.53906 18.6274 1.53906 12C1.53906 5.37258 6.91165 0 13.5391 0C20.1665 0 25.5391 5.37258 25.5391 12C25.5391 14.5939 24.7161 16.9956 23.317 18.9581C23.3586 18.9935 23.3992 19.0308 23.4385 19.0702L29.0954 24.727C29.8764 25.5081 29.8764 26.7744 29.0954 27.5554C28.3143 28.3365 27.048 28.3365 26.2669 27.5554L20.6101 21.8986C20.5708 21.8593 20.5335 21.8188 20.4982 21.7772Z" fill="#CED4DA"/>
</svg>