<svg width="24" height="24" viewBox="0 0 24 24" fill="none" xmlns="http://www.w3.org/2000/svg">
<rect width="24" height="24" rx="2" fill="#5F82C3" fill-opacity="0.2"/>
<path d="M11.1666 19.458C9.48603 19.2497 8.09367 18.517 6.9895 17.2601C5.88534 16.0031 5.33325 14.5275 5.33325 12.833C5.33325 11.9163 5.51381 11.0379 5.87492 10.1976C6.23603 9.35731 6.74992 8.62467 7.41659 7.99968L8.60409 9.18718C8.07631 9.6594 7.677 10.208 7.40617 10.833C7.13534 11.458 6.99992 12.1247 6.99992 12.833C6.99992 14.0552 7.38881 15.1351 8.16659 16.0726C8.94436 17.0101 9.94436 17.583 11.1666 17.7913V19.458ZM12.8333 19.458V17.7913C14.0416 17.5691 15.0381 16.9927 15.8228 16.0622C16.6076 15.1316 16.9999 14.0552 16.9999 12.833C16.9999 11.4441 16.5138 10.2636 15.5416 9.29134C14.5694 8.31912 13.3888 7.83301 11.9999 7.83301H11.9374L12.8541 8.74967L11.6874 9.91634L8.77075 6.99967L11.6874 4.08301L12.8541 5.24967L11.9374 6.16634H11.9999C13.861 6.16634 15.4374 6.81217 16.7291 8.10384C18.0208 9.39551 18.6666 10.9719 18.6666 12.833C18.6666 14.5136 18.1145 15.9823 17.0103 17.2393C15.9062 18.4962 14.5138 19.2358 12.8333 19.458Z" fill="#ADB5BD"/>
</svg>
