<svg xmlns="http://www.w3.org/2000/svg" width="16" height="17" viewBox="0 0 16 17" fill="none">
<path d="M4 14.5C5.10457 14.5 6 13.6046 6 12.5C6 11.3954 5.10457 10.5 4 10.5C2.89543 10.5 2 11.3954 2 12.5C2 13.6046 2.89543 14.5 4 14.5Z" stroke="#7A7A7A" stroke-linecap="round" stroke-linejoin="round"/>
<path d="M12 6.5C12 8.0913 11.3679 9.61742 10.2426 10.7426C9.11742 11.8679 7.5913 12.5 6 12.5" stroke="#7A7A7A" stroke-linecap="round" stroke-linejoin="round"/>
<path d="M12 6.5C13.1046 6.5 14 5.60457 14 4.5C14 3.39543 13.1046 2.5 12 2.5C10.8954 2.5 10 3.39543 10 4.5C10 5.60457 10.8954 6.5 12 6.5Z" stroke="#7A7A7A" stroke-linecap="round" stroke-linejoin="round"/>
<path d="M4 2.5V10.5" stroke="#7A7A7A" stroke-linecap="round" stroke-linejoin="round"/>
</svg>