<svg xmlns="http://www.w3.org/2000/svg" width="15" height="17" viewBox="0 0 15 17" fill="none">
<g clip-path="url(#clip0_9404_59615)">
<path fill-rule="evenodd" clip-rule="evenodd" d="M10.2926 9.61041C9.38882 10.508 8.14394 11.0625 6.76953 11.0625C4.00811 11.0625 1.76953 8.82392 1.76953 6.0625C1.76953 3.30108 4.00811 1.0625 6.76953 1.0625C9.53096 1.0625 11.7695 3.30108 11.7695 6.0625C11.7695 7.43664 11.2152 8.6813 10.318 9.58508C10.3137 9.5892 10.3095 9.59337 10.3053 9.59758C10.301 9.60183 10.2968 9.6061 10.2926 9.61041ZM10.2492 10.951C9.26782 11.6508 8.06675 12.0625 6.76953 12.0625C3.45582 12.0625 0.769531 9.37621 0.769531 6.0625C0.769531 2.74879 3.45582 0.0625 6.76953 0.0625C10.0832 0.0625 12.7695 2.74879 12.7695 6.0625C12.7695 7.35939 12.3581 8.56019 11.6586 9.54145C11.6794 9.55917 11.6998 9.57788 11.7195 9.59758L14.5479 12.426C14.9384 12.8165 14.9384 13.4497 14.5479 13.8402C14.1574 14.2307 13.5242 14.2307 13.1337 13.8402L10.3053 11.0118C10.2856 10.9921 10.2669 10.9718 10.2492 10.951Z" fill="#49494A"/>
</g>
<defs>
<clipPath id="clip0_9404_59615">
<rect width="15" height="16.875" fill="transparent" transform="translate(0 0.0625)"/>
</clipPath>
</defs>
</svg>