<svg width="32" height="32" viewBox="0 0 32 32" fill="none" xmlns="http://www.w3.org/2000/svg">
<rect x="2" y="2" width="28" height="28" rx="8" fill="url(#paint0_linear_3193_12595)"/>
<path d="M7 15C7 14.4477 7.44772 14 8 14H9C9.55228 14 10 14.4477 10 15V24H7V15Z" fill="url(#paint1_linear_3193_12595)"/>
<path d="M12 9C12 8.44772 12.4477 8 13 8H14C14.5523 8 15 8.44772 15 9V24H12V9Z" fill="url(#paint2_linear_3193_12595)"/>
<path d="M17 11C17 10.4477 17.4477 10 18 10H19C19.5523 10 20 10.4477 20 11V24H17V11Z" fill="url(#paint3_linear_3193_12595)"/>
<path d="M22 17C22 16.4477 22.4477 16 23 16H24C24.5523 16 25 16.4477 25 17V24H22V17Z" fill="url(#paint4_linear_3193_12595)"/>
<defs>
<linearGradient id="paint0_linear_3193_12595" x1="16" y1="2" x2="16" y2="30" gradientUnits="userSpaceOnUse">
<stop stop-color="white" stop-opacity="0.87"/>
<stop offset="1" stop-color="#C5DFE9"/>
</linearGradient>
<linearGradient id="paint1_linear_3193_12595" x1="7" y1="24" x2="5.212" y2="14.9455" gradientUnits="userSpaceOnUse">
<stop stop-color="#2774FF"/>
<stop offset="1" stop-color="#2FDAC5"/>
</linearGradient>
<linearGradient id="paint2_linear_3193_12595" x1="12" y1="24" x2="7.6759" y2="10.3141" gradientUnits="userSpaceOnUse">
<stop stop-color="#2774FF"/>
<stop offset="1" stop-color="#2FDAC5"/>
</linearGradient>
<linearGradient id="paint3_linear_3193_12595" x1="17" y1="24" x2="13.6174" y2="11.7645" gradientUnits="userSpaceOnUse">
<stop stop-color="#2774FF"/>
<stop offset="1" stop-color="#2FDAC5"/>
</linearGradient>
<linearGradient id="paint4_linear_3193_12595" x1="22" y1="24" x2="20.84" y2="16.6572" gradientUnits="userSpaceOnUse">
<stop stop-color="#2774FF"/>
<stop offset="1" stop-color="#2FDAC5"/>
</linearGradient>
</defs>
</svg>
