<svg xmlns="http://www.w3.org/2000/svg" width="18" height="18" viewBox="0 0 18 18" fill="none">
  <path d="M7.35796 15L7.11916 13.08C6.98981 13.03 6.86791 12.97 6.75349 12.9C6.63906 12.83 6.52712 12.755 6.41767 12.675L4.64155 13.425L2.99976 10.575L4.53707 9.405C4.52712 9.335 4.52214 9.2675 4.52214 9.2025V8.7975C4.52214 8.7325 4.52712 8.665 4.53707 8.595L2.99976 7.425L4.64155 4.575L6.41767 5.325C6.52712 5.245 6.64155 5.17 6.76095 5.1C6.88035 5.03 6.99976 4.97 7.11916 4.92L7.35796 3H10.6415L10.8804 4.92C11.0097 4.97 11.1316 5.03 11.246 5.1C11.3605 5.17 11.4724 5.245 11.5818 5.325L13.358 4.575L14.9998 7.425L13.4624 8.595C13.4724 8.665 13.4774 8.7325 13.4774 8.7975V9.2025C13.4774 9.2675 13.4674 9.335 13.4475 9.405L14.9848 10.575L13.343 13.425L11.5818 12.675C11.4724 12.755 11.358 12.83 11.2386 12.9C11.1192 12.97 10.9998 13.03 10.8804 13.08L10.6415 15H7.35796ZM9.02961 11.1C9.60672 11.1 10.0993 10.895 10.5072 10.485C10.9152 10.075 11.1192 9.58 11.1192 9C11.1192 8.42 10.9152 7.925 10.5072 7.515C10.0993 7.105 9.60672 6.9 9.02961 6.9C8.44254 6.9 7.94752 7.105 7.54453 7.515C7.14155 7.925 6.94005 8.42 6.94005 9C6.94005 9.58 7.14155 10.075 7.54453 10.485C7.94752 10.895 8.44254 11.1 9.02961 11.1Z" fill="#212529"/>
</svg>