<svg width="24" height="24" viewBox="0 0 24 24" fill="none" xmlns="http://www.w3.org/2000/svg">
<path fill-rule="evenodd" clip-rule="evenodd" d="M15.2422 3L18.7777 6.53553L18.985 6.74281H19V6.75781L19.4848 7.24264L19 7.72747V7.74281H18.9847L18.7777 7.94975L15.2422 11.4853L14.5351 10.7782L17.5704 7.74281H4V6.74281H17.5708L14.5351 3.70711L15.2422 3Z" fill="white"/>
<path fill-rule="evenodd" clip-rule="evenodd" d="M8.24219 21.4854L4.70665 17.9498L4.49938 17.7425L4.48438 17.7425L4.48438 17.7275L3.99955 17.2427L4.48438 16.7579L4.48438 16.7425L4.49972 16.7425L4.70665 16.5356L8.24219 13.0001L8.94929 13.7072L5.91393 16.7425L19.4844 16.7425L19.4844 17.7425L5.91359 17.7425L8.94929 20.7782L8.24219 21.4854Z" fill="white"/>
</svg>
