<svg width="18" height="24" viewBox="0 0 18 24" fill="none" xmlns="http://www.w3.org/2000/svg">
<path d="M9 15.1579C11.1343 15.1579 12.8443 13.4653 12.8443 11.3684L12.8571 3.78947C12.8571 1.69263 11.1343 0 9 0C6.86571 0 5.14286 1.69263 5.14286 3.78947V11.3684C5.14286 13.4653 6.86571 15.1579 9 15.1579ZM15.8143 11.3684C15.8143 15.1579 12.5486 17.8105 9 17.8105C5.45143 17.8105 2.18571 15.1579 2.18571 11.3684H0C0 15.6884 3.49714 19.2379 7.71429 19.8568V24H10.2857V19.8568C14.5029 19.2505 18 15.6884 18 11.3684H15.8143Z" fill="white"/>
</svg>
