<svg width="32" height="32" viewBox="0 0 32 32" fill="none" xmlns="http://www.w3.org/2000/svg">
<path d="M14.6668 27.9334C11.9779 27.6 9.75016 26.4278 7.9835 24.4167C6.21683 22.4056 5.3335 20.0445 5.3335 17.3334C5.3335 15.8667 5.62238 14.4612 6.20016 13.1167C6.77794 11.7723 7.60016 10.6 8.66683 9.60004L10.5668 11.5C9.72238 12.2556 9.0835 13.1334 8.65016 14.1334C8.21683 15.1334 8.00016 16.2 8.00016 17.3334C8.00016 19.2889 8.62238 21.0167 9.86683 22.5167C11.1113 24.0167 12.7113 24.9334 14.6668 25.2667V27.9334ZM17.3335 27.9334V25.2667C19.2668 24.9112 20.8613 23.9889 22.1168 22.5C23.3724 21.0112 24.0002 19.2889 24.0002 17.3334C24.0002 15.1112 23.2224 13.2223 21.6668 11.6667C20.1113 10.1112 18.2224 9.33337 16.0002 9.33337H15.9002L17.3668 10.8L15.5002 12.6667L10.8335 8.00004L15.5002 3.33337L17.3668 5.20004L15.9002 6.66671H16.0002C18.9779 6.66671 21.5002 7.70004 23.5668 9.76671C25.6335 11.8334 26.6668 14.3556 26.6668 17.3334C26.6668 20.0223 25.7835 22.3723 24.0168 24.3834C22.2502 26.3945 20.0224 27.5778 17.3335 27.9334Z" fill="white" fill-opacity="0.5"/>
</svg>
