<svg width="22" height="22" viewBox="0 0 22 22" fill="none" xmlns="http://www.w3.org/2000/svg">
<path fill-rule="evenodd" clip-rule="evenodd" d="M11.8573 1.57144C11.8573 1.09805 11.4735 0.714294 11.0001 0.714294C10.5267 0.714294 10.143 1.09805 10.143 1.57144V10.1429H1.5715C1.09811 10.1429 0.714355 10.5266 0.714355 11C0.714355 11.4734 1.09811 11.8571 1.5715 11.8571H10.143V20.4286C10.143 20.902 10.5267 21.2857 11.0001 21.2857C11.4735 21.2857 11.8573 20.902 11.8573 20.4286V11.8571H20.4286C20.902 11.8571 21.2858 11.4734 21.2858 11C21.2858 10.5266 20.902 10.1429 20.4286 10.1429H11.8573V1.57144Z" fill="white"/>
</svg>
