<svg width="26" height="25" viewBox="0 0 26 25" fill="none" xmlns="http://www.w3.org/2000/svg">
<path d="M0.0314048 0.201172C0.0125619 0.201172 0 0.213585 0 0.232205V5.03919C0 5.0547 0.0125619 5.07022 0.0282643 5.07022C5.96063 5.25021 10.888 9.36516 12.229 14.8642C12.2384 14.8983 12.2887 14.8952 12.2887 14.858V12.3164C12.2887 5.62571 6.80228 0.201172 0.0314048 0.201172Z" fill="url(#paint0_linear_2275_5466)"/>
<path d="M22.8028 3.9127V12.1643C22.8028 15.9969 20.3438 19.2739 16.905 20.537V12.2853C16.905 8.45279 19.364 5.17573 22.8028 3.9127ZM25.9998 0.201172H25.937C19.185 0.201172 13.708 5.61019 13.708 12.2853V24.2485H13.7708C20.5228 24.2485 25.9998 18.8395 25.9998 12.1643V0.201172Z" fill="url(#paint1_linear_2275_5466)"/>
<path d="M11.9812 24.2456H12.3172V24.199C9.79856 18.8893 6.16817 16.7791 0.669189 16.0063C2.78587 21.344 6.28123 23.6342 11.9781 24.2456H11.9812Z" fill="url(#paint2_linear_2275_5466)"/>
<defs>
<linearGradient id="paint0_linear_2275_5466" x1="22.4073" y1="-8.52525" x2="-8.56122" y2="22.8145" gradientUnits="userSpaceOnUse">
<stop stop-color="#1F85FF"/>
<stop offset="1" stop-color="#4627E3"/>
</linearGradient>
<linearGradient id="paint1_linear_2275_5466" x1="31.6307" y1="0.589081" x2="0.662186" y2="31.9288" gradientUnits="userSpaceOnUse">
<stop stop-color="#1F85FF"/>
<stop offset="1" stop-color="#4627E3"/>
</linearGradient>
<linearGradient id="paint2_linear_2275_5466" x1="-7.84465" y1="6.12861" x2="20.6321" y2="34.9467" gradientUnits="userSpaceOnUse">
<stop stop-color="#1F85FF"/>
<stop offset="1" stop-color="#4627E3"/>
</linearGradient>
</defs>
</svg>
