<svg width="83" height="19" viewBox="0 0 83 19" fill="none" xmlns="http://www.w3.org/2000/svg">
<g clip-path="url(#clip0_858_66)">
<path d="M45.8739 11.1036V0.0979004H41.1235V18.719H43.4987H45.8739V11.1036Z" fill="white"/>
<path d="M61.9777 0.0979004L57.1656 12.688L52.3493 0.0979004H47.5989L54.7245 18.719H54.8562H59.4708H59.6025L66.7281 0.0979004H61.9777Z" fill="white"/>
<path d="M82.3294 18.719L75.2079 0.0979004H70.4575L77.5831 18.719H82.3294Z" fill="white"/>
<path d="M18.3142 0.0212402H13.5185V9.25511C13.5185 11.5252 11.7402 13.6548 9.55022 13.855C6.96508 14.0893 4.79981 11.9895 4.79981 9.36159V0.0212402H0V9.36159C0 14.5961 4.10001 18.8382 9.15916 18.8382C14.2183 18.8382 18.3183 14.5961 18.3183 9.36159V5.22594V0.0254995L18.3142 0.0212402Z" fill="white"/>
<path d="M20.3601 18.817H25.1558V9.58312C25.1558 7.31298 26.9341 5.1834 29.124 4.98322C31.7092 4.74897 33.8745 6.84874 33.8745 9.47664V18.817H38.6743V9.47664C38.6743 4.24213 34.5743 0 29.5151 0C24.456 0 20.356 4.24213 20.356 9.47664V13.6123V18.8127L20.3601 18.817Z" fill="white"/>
<path d="M70.0212 18.834C72.04 18.834 73.6766 17.1407 73.6766 15.0519C73.6766 12.9631 72.04 11.2698 70.0212 11.2698C68.0023 11.2698 66.3657 12.9631 66.3657 15.0519C66.3657 17.1407 68.0023 18.834 70.0212 18.834Z" fill="white"/>
</g>
<defs>
<clipPath id="clip0_858_66">
<rect width="83" height="19" fill="white"/>
</clipPath>
</defs>
</svg>
