<svg width="460" height="102" viewBox="0 0 460 102" fill="none" xmlns="http://www.w3.org/2000/svg">
<g clip-path="url(#clip0_370_5461)">
<path d="M256.306 60.1249V0.511475H229.772V101.394H243.039H256.306V60.1249Z" fill="white"/>
<path d="M346.294 0.511475L319.392 68.703L292.49 0.511475H265.956L305.757 101.394H306.494H332.282H333.028L372.82 0.511475H346.294Z" fill="white"/>
<path d="M460 101.394L420.207 0.511475H393.674L433.466 101.394H460Z" fill="white"/>
<path d="M102.322 0.0944824H75.5212V50.1068C75.5212 62.4151 65.5809 73.9443 53.3576 75.0146C38.9217 76.2816 26.8082 64.902 26.8082 50.6813V0.0944824H0V50.6813C0 79.0282 22.909 102.008 51.1686 102.008C79.4283 102.008 102.337 79.0282 102.337 50.6813V28.2682H102.329V0.0944824H102.322Z" fill="white"/>
<path d="M113.768 101.906H140.569V51.8932C140.569 39.5849 150.509 28.0557 162.732 26.9854C177.168 25.7184 189.281 37.0981 189.281 51.3187V101.906H216.09V51.3187C216.09 22.9797 193.181 0 164.921 0C136.661 0 113.752 22.9797 113.752 51.3266V73.7397H113.76V101.913L113.768 101.906Z" fill="white"/>
<path d="M391.234 102C402.508 102 411.648 92.832 411.648 81.5228C411.648 70.2136 402.508 61.0457 391.234 61.0457C379.959 61.0457 370.82 70.2136 370.82 81.5228C370.82 92.832 379.959 102 391.234 102Z" fill="white"/>
</g>
<defs>
<clipPath id="clip0_370_5461">
<rect width="460" height="102" fill="white"/>
</clipPath>
</defs>
</svg>
