<svg width="345" height="90" viewBox="0 0 345 90" fill="none" xmlns="http://www.w3.org/2000/svg">
<mask id="path-1-outside-1_1921_6929" maskUnits="userSpaceOnUse" x="0" y="46" width="345" height="44" fill="black">
<rect fill="white" y="46" width="345" height="44"/>
<path d="M1 47H344V77C344 83.6274 338.627 89 332 89H13C6.37258 89 1 83.6274 1 77V47Z"/>
</mask>
<path d="M1 47H344V77C344 83.6274 338.627 89 332 89H13C6.37258 89 1 83.6274 1 77V47Z" fill="#101114"/>
<path d="M1 47V46H0V47H1ZM344 47H345V46H344V47ZM1 48H344V46H1V48ZM343 47V77H345V47H343ZM332 88H13V90H332V88ZM2 77V47H0V77H2ZM13 88C6.92487 88 2 83.0751 2 77H0C0 84.1797 5.8203 90 13 90V88ZM343 77C343 83.0751 338.075 88 332 88V90C339.18 90 345 84.1797 345 77H343Z" fill="#2C2C33" mask="url(#path-1-outside-1_1921_6929)"/>
<path d="M23.4922 63.5156H24.5469V69.1289C24.5469 70.875 23.2402 72.1465 21.2422 72.1523C19.2383 72.1465 17.9375 70.875 17.9375 69.1289V63.5156H18.9922V69.0469C18.9863 70.2773 19.8418 71.1621 21.2422 71.168C22.6426 71.1621 23.4863 70.2773 23.4922 69.0469V63.5156ZM33.1602 63.5156V72H32.1523L27.5586 65.3906H27.4766V72H26.4219V63.5156H27.4414L32.0352 70.1367H32.1172V63.5156H33.1602ZM36.0898 63.5156V72H35.0352V63.5156H36.0898ZM38.3516 63.5156L40.8477 70.6289H40.9414L43.4492 63.5156H44.5625L41.457 72H40.3438L37.2383 63.5156H38.3516ZM45.3359 72H44.2344L47.3398 63.5156H48.4531L51.5586 72H50.4453L49.5957 69.6094H46.1855L45.3359 72ZM46.5078 68.6836H49.2734L47.9258 64.8867H47.8555L46.5078 68.6836ZM62.457 63.5156V72H61.4492L56.8555 65.3906H56.7734V72H55.7188V63.5156H56.7383L61.332 70.1367H61.4141V63.5156H62.457ZM64.332 72V63.5156H65.3867V71.0625H69.3242V72H64.332ZM70.7305 72V63.5156H73.6133C75.5996 63.5156 76.5078 64.6992 76.5078 66.2109C76.5078 67.7168 75.5996 68.918 73.625 68.918H71.7852V72H70.7305ZM71.7852 67.9805H73.5781C74.9316 67.9805 75.459 67.2188 75.4648 66.2109C75.459 65.1973 74.9316 64.4531 73.5664 64.4531H71.7852V67.9805Z" fill="white"/>
<path d="M106.574 72.1172C104.693 72.1172 103.604 70.5352 103.609 67.7578C103.604 65.0039 104.705 63.3984 106.574 63.3984C108.438 63.3984 109.539 65.0039 109.539 67.7578C109.539 70.5352 108.455 72.1172 106.574 72.1172ZM104.629 67.7578C104.635 69.9551 105.344 71.1797 106.574 71.1797C107.799 71.1797 108.514 69.9551 108.508 67.7578C108.514 65.5605 107.793 64.3184 106.574 64.3125C105.355 64.3184 104.635 65.5605 104.629 67.7578ZM111.367 72.0703C110.957 72.0645 110.605 71.7246 110.617 71.3086C110.605 70.8984 110.957 70.5586 111.367 70.5586C111.783 70.5586 112.123 70.8984 112.117 71.3086C112.123 71.7246 111.783 72.0645 111.367 72.0703ZM115.668 63.5156V72H114.602V64.6172H114.555L112.492 65.9883V64.9219L114.602 63.5156H115.668ZM120.695 72.1172C119.166 72.1172 118.006 71.1738 117.941 69.8672H118.961C119.037 70.623 119.775 71.1855 120.695 71.1914C121.797 71.1855 122.594 70.3828 122.594 69.3164C122.594 68.2148 121.768 67.4004 120.625 67.3945C119.91 67.3828 119.354 67.6055 119.043 68.1562H118.023L118.621 63.5156H123.215V64.4531H119.5L119.184 66.9375H119.266C119.646 66.6445 120.215 66.4453 120.812 66.4453C122.43 66.4453 123.619 67.6406 123.625 69.293C123.619 70.9336 122.389 72.1172 120.695 72.1172ZM133.305 62.543V70.4531H132.379V69.375H130.223V68.707H132.379V62.543H133.305ZM124.656 67.3711C126.596 67.3594 129.209 67.3418 131.441 67.0664L131.5 67.7344C130.574 67.8809 129.596 67.9746 128.641 68.0332V70.0898H127.715V68.0801C126.66 68.1211 125.658 68.1211 124.785 68.1211L124.656 67.3711ZM125.5 64.7812C125.494 63.6855 126.537 62.9648 128.078 62.9648C129.607 62.9648 130.65 63.6855 130.656 64.7812C130.65 65.8945 129.607 66.5859 128.078 66.5859C126.537 66.5859 125.494 65.8945 125.5 64.7812ZM126.156 72.7266V69.6797H127.082V71.9531H133.562V72.7266H126.156ZM126.379 64.7812C126.367 65.4609 127.059 65.9004 128.078 65.9062C129.068 65.9004 129.771 65.4609 129.777 64.7812C129.771 64.1133 129.068 63.6562 128.078 63.668C127.059 63.6562 126.367 64.1133 126.379 64.7812ZM141.508 63.1172L138.766 73.2773H137.852L140.582 63.1172H141.508Z" fill="white"/>
<path d="M148.492 63.5156V72H147.426V64.6172H147.379L145.316 65.9883V64.9219L147.426 63.5156H148.492ZM150.895 72V63.5156H151.949V67.7109H152.055L155.828 63.5156H157.211L153.66 67.3477L157.211 72H155.922L153.004 68.0742L151.949 69.2695V72H150.895ZM164.008 65.6367V66.4805H162.672V70.1719C162.666 70.9863 163.076 71.1211 163.504 71.1211C163.686 71.1211 163.955 71.1035 164.102 71.0977V72.0352C163.943 72.0586 163.697 72.082 163.398 72.082C162.549 72.082 161.658 71.5547 161.652 70.4297V66.4805H160.691V65.6367H161.652V64.1133H162.672V65.6367H164.008ZM167.84 72.1289C166.105 72.1348 164.934 70.8223 164.934 68.8477C164.934 66.8613 166.105 65.5547 167.84 65.5547C169.568 65.5547 170.729 66.8613 170.723 68.8477C170.729 70.8223 169.568 72.1348 167.84 72.1289ZM165.941 68.8477C165.947 70.1191 166.545 71.2383 167.84 71.2383C169.123 71.2383 169.715 70.1191 169.715 68.8477C169.715 67.582 169.123 66.4453 167.84 66.4453C166.545 66.4453 165.947 67.582 165.941 68.8477ZM172.047 72V63.5156H173.055V68.4492H173.172L175.926 65.6367H177.168L174.484 68.3613L177.367 72H176.09L173.729 69L173.055 69.627V72H172.047ZM180.648 72.1289C178.809 72.1348 177.672 70.8223 177.672 68.8711C177.672 66.9141 178.826 65.5547 180.555 65.5547C181.891 65.5547 183.303 66.375 183.297 68.7305V69.1523H178.68C178.732 70.5 179.518 71.2383 180.648 71.2383C181.41 71.2383 181.891 70.9043 182.125 70.5117H183.203C182.904 71.4785 181.961 72.1348 180.648 72.1289ZM178.686 68.2969H182.277C182.271 67.2363 181.604 66.4453 180.555 66.4453C179.453 66.4453 178.756 67.3125 178.686 68.2969ZM185.617 68.1797V72H184.609V65.6367H185.582V66.6328H185.664C185.963 65.9824 186.561 65.5547 187.527 65.5547C188.816 65.5547 189.678 66.3398 189.672 67.957V72H188.664V68.0273C188.664 67.043 188.125 66.457 187.223 66.457C186.297 66.457 185.617 67.0781 185.617 68.1797ZM194.828 67.2891C194.688 66.7617 194.283 66.416 193.539 66.4102C192.754 66.416 192.197 66.8379 192.191 67.3711C192.197 67.793 192.537 68.0801 193.281 68.2617L194.23 68.4961C195.367 68.7656 195.924 69.334 195.93 70.2188C195.924 71.3203 195.027 72.1348 193.434 72.1289C192.004 72.1348 191.154 71.4961 190.984 70.3359H192.039C192.156 70.957 192.607 71.2559 193.41 71.25C194.318 71.2559 194.887 70.875 194.887 70.2773C194.887 69.8262 194.564 69.5332 193.844 69.3633L192.883 69.1406C191.775 68.8828 191.184 68.2793 191.184 67.4297C191.184 66.3398 192.139 65.5547 193.539 65.5547C194.857 65.5547 195.684 66.2578 195.812 67.2891H194.828Z" fill="#7D7D82"/>
<path d="M225.453 72.1172C223.572 72.1172 222.482 70.5352 222.488 67.7578C222.482 65.0039 223.584 63.3984 225.453 63.3984C227.316 63.3984 228.418 65.0039 228.418 67.7578C228.418 70.5352 227.334 72.1172 225.453 72.1172ZM223.508 67.7578C223.514 69.9551 224.223 71.1797 225.453 71.1797C226.678 71.1797 227.393 69.9551 227.387 67.7578C227.393 65.5605 226.672 64.3184 225.453 64.3125C224.234 64.3184 223.514 65.5605 223.508 67.7578ZM230.246 72.0703C229.836 72.0645 229.484 71.7246 229.496 71.3086C229.484 70.8984 229.836 70.5586 230.246 70.5586C230.662 70.5586 231.002 70.8984 230.996 71.3086C231.002 71.7246 230.662 72.0645 230.246 72.0703ZM235.18 72.1172C233.492 72.1172 232.279 71.2148 232.227 69.8672H233.293C233.352 70.6758 234.154 71.1797 235.168 71.1797C236.287 71.1797 237.096 70.5762 237.102 69.6914C237.096 68.7656 236.357 68.1152 235.039 68.1094H234.348V67.1836H235.039C236.07 67.1836 236.791 66.6035 236.785 65.7305C236.791 64.8809 236.17 64.3184 235.203 64.3125C234.295 64.3184 233.469 64.8164 233.422 65.6484H232.402C232.455 64.3008 233.709 63.3984 235.215 63.3984C236.832 63.3984 237.816 64.459 237.805 65.6719C237.816 66.6387 237.254 67.3418 236.363 67.5938V67.6523C237.471 67.8223 238.139 68.6133 238.133 69.6914C238.139 71.0859 236.873 72.1172 235.18 72.1172ZM247.871 62.543V70.4531H246.945V69.375H244.789V68.707H246.945V62.543H247.871ZM239.223 67.3711C241.162 67.3594 243.775 67.3418 246.008 67.0664L246.066 67.7344C245.141 67.8809 244.162 67.9746 243.207 68.0332V70.0898H242.281V68.0801C241.227 68.1211 240.225 68.1211 239.352 68.1211L239.223 67.3711ZM240.066 64.7812C240.061 63.6855 241.104 62.9648 242.645 62.9648C244.174 62.9648 245.217 63.6855 245.223 64.7812C245.217 65.8945 244.174 66.5859 242.645 66.5859C241.104 66.5859 240.061 65.8945 240.066 64.7812ZM240.723 72.7266V69.6797H241.648V71.9531H248.129V72.7266H240.723ZM240.945 64.7812C240.934 65.4609 241.625 65.9004 242.645 65.9062C243.635 65.9004 244.338 65.4609 244.344 64.7812C244.338 64.1133 243.635 63.6562 242.645 63.668C241.625 63.6562 240.934 64.1133 240.945 64.7812ZM256.074 63.1172L253.332 73.2773H252.418L255.148 63.1172H256.074Z" fill="white"/>
<path d="M263.059 63.5156V72H261.992V64.6172H261.945L259.883 65.9883V64.9219L261.992 63.5156H263.059ZM265.461 72V63.5156H266.516V67.7109H266.621L270.395 63.5156H271.777L268.227 67.3477L271.777 72H270.488L267.57 68.0742L266.516 69.2695V72H265.461ZM278.574 65.6367V66.4805H277.238V70.1719C277.232 70.9863 277.643 71.1211 278.07 71.1211C278.252 71.1211 278.521 71.1035 278.668 71.0977V72.0352C278.51 72.0586 278.264 72.082 277.965 72.082C277.115 72.082 276.225 71.5547 276.219 70.4297V66.4805H275.258V65.6367H276.219V64.1133H277.238V65.6367H278.574ZM282.406 72.1289C280.672 72.1348 279.5 70.8223 279.5 68.8477C279.5 66.8613 280.672 65.5547 282.406 65.5547C284.135 65.5547 285.295 66.8613 285.289 68.8477C285.295 70.8223 284.135 72.1348 282.406 72.1289ZM280.508 68.8477C280.514 70.1191 281.111 71.2383 282.406 71.2383C283.689 71.2383 284.281 70.1191 284.281 68.8477C284.281 67.582 283.689 66.4453 282.406 66.4453C281.111 66.4453 280.514 67.582 280.508 68.8477ZM286.613 72V63.5156H287.621V68.4492H287.738L290.492 65.6367H291.734L289.051 68.3613L291.934 72H290.656L288.295 69L287.621 69.627V72H286.613ZM295.215 72.1289C293.375 72.1348 292.238 70.8223 292.238 68.8711C292.238 66.9141 293.393 65.5547 295.121 65.5547C296.457 65.5547 297.869 66.375 297.863 68.7305V69.1523H293.246C293.299 70.5 294.084 71.2383 295.215 71.2383C295.977 71.2383 296.457 70.9043 296.691 70.5117H297.77C297.471 71.4785 296.527 72.1348 295.215 72.1289ZM293.252 68.2969H296.844C296.838 67.2363 296.17 66.4453 295.121 66.4453C294.02 66.4453 293.322 67.3125 293.252 68.2969ZM300.184 68.1797V72H299.176V65.6367H300.148V66.6328H300.23C300.529 65.9824 301.127 65.5547 302.094 65.5547C303.383 65.5547 304.244 66.3398 304.238 67.957V72H303.23V68.0273C303.23 67.043 302.691 66.457 301.789 66.457C300.863 66.457 300.184 67.0781 300.184 68.1797ZM309.395 67.2891C309.254 66.7617 308.85 66.416 308.105 66.4102C307.32 66.416 306.764 66.8379 306.758 67.3711C306.764 67.793 307.104 68.0801 307.848 68.2617L308.797 68.4961C309.934 68.7656 310.49 69.334 310.496 70.2188C310.49 71.3203 309.594 72.1348 308 72.1289C306.57 72.1348 305.721 71.4961 305.551 70.3359H306.605C306.723 70.957 307.174 71.2559 307.977 71.25C308.885 71.2559 309.453 70.875 309.453 70.2773C309.453 69.8262 309.131 69.5332 308.41 69.3633L307.449 69.1406C306.342 68.8828 305.75 68.2793 305.75 67.4297C305.75 66.3398 306.705 65.5547 308.105 65.5547C309.424 65.5547 310.25 66.2578 310.379 67.2891H309.395Z" fill="#6C757D"/>
<mask id="path-6-outside-2_1921_6929" maskUnits="userSpaceOnUse" x="0" y="0" width="345" height="46" fill="black">
<rect fill="white" width="345" height="46"/>
<path d="M1 13C1 6.37258 6.37258 1 13 1H332C338.627 1 344 6.37258 344 13V46H1V13Z"/>
</mask>
<path d="M1 13C1 6.37258 6.37258 1 13 1H332C338.627 1 344 6.37258 344 13V46H1V13Z" fill="#1B1E25"/>
<path d="M0 13C0 5.8203 5.8203 0 13 0H332C339.18 0 345 5.8203 345 13H343C343 6.92487 338.075 2 332 2H13C6.92487 2 2 6.92487 2 13H0ZM344 46H1H344ZM0 46V13C0 5.8203 5.8203 0 13 0V2C6.92487 2 2 6.92487 2 13V46H0ZM332 0C339.18 0 345 5.8203 345 13V46H343V13C343 6.92487 338.075 2 332 2V0Z" fill="#2C2C33" mask="url(#path-6-outside-2_1921_6929)"/>
<path d="M17.834 18.1016H20.377L23.125 24.8145H23.2344L25.9824 18.1016H28.5254V28H26.5293V21.5195H26.4473L23.8633 27.959H22.4961L19.9121 21.4922H19.8301V28H17.834V18.1016ZM39.2578 23.0508C39.2578 26.2842 37.2549 28.1367 34.6367 28.1367C31.998 28.1367 30.002 26.2705 30.002 23.0508C30.002 19.8174 31.998 17.9648 34.6367 17.9648C37.2549 17.9648 39.2578 19.8174 39.2578 23.0508ZM32.0938 23.0508C32.0938 25.1631 33.0986 26.3115 34.6367 26.3184C36.1611 26.3115 37.1729 25.1631 37.166 23.0508C37.1729 20.9316 36.1611 19.79 34.6367 19.7832C33.0986 19.79 32.0938 20.9316 32.0938 23.0508ZM44.2207 28H40.7344V18.1016H44.2617C47.2422 18.1016 49.0674 19.9541 49.0605 23.0371C49.0674 26.1338 47.2422 28 44.2207 28ZM42.7852 26.2363H44.1387C46.0254 26.2363 47.0098 25.2588 47.0098 23.0371C47.0098 20.8359 46.0254 19.8652 44.1523 19.8652H42.7852V26.2363ZM50.5508 28V18.1016H57.1953V19.7969H52.6016V22.2031H56.8535V23.8984H52.6016V26.3047H57.209V28H50.5508ZM58.7949 28V18.1016H60.8457V26.3047H65.1113V28H58.7949Z" fill="white"/>
<path d="M104.885 18.1016V28H102.834V18.1016H104.885ZM114.811 18.1016V28H113.033L108.686 21.7109H108.604V28H106.553V18.1016H108.357L112.678 24.3906H112.773V18.1016H114.811ZM116.479 28V18.1016H120.361C122.61 18.1016 123.902 19.4893 123.902 21.4375C123.902 23.4131 122.59 24.7734 120.307 24.7734H118.529V28H116.479ZM118.529 23.1191H119.979C121.195 23.1191 121.79 22.4355 121.783 21.4375C121.79 20.4531 121.195 19.79 119.979 19.7832H118.529V23.1191ZM131.326 18.1016H133.391V24.5273C133.391 26.6943 131.743 28.1436 129.289 28.1367C126.828 28.1436 125.201 26.6943 125.201 24.5273V18.1016H127.252V24.3633C127.259 25.5049 128.065 26.3252 129.289 26.332C130.526 26.3252 131.333 25.5049 131.326 24.3633V18.1016ZM134.676 19.7969V18.1016H142.783V19.7969H139.748V28H137.711V19.7969H134.676Z" fill="white"/>
<path d="M230.898 23.0508C230.898 26.2842 228.896 28.1367 226.277 28.1367C223.639 28.1367 221.643 26.2705 221.643 23.0508C221.643 19.8174 223.639 17.9648 226.277 17.9648C228.896 17.9648 230.898 19.8174 230.898 23.0508ZM223.734 23.0508C223.734 25.1631 224.739 26.3115 226.277 26.3184C227.802 26.3115 228.813 25.1631 228.807 23.0508C228.813 20.9316 227.802 19.79 226.277 19.7832C224.739 19.79 223.734 20.9316 223.734 23.0508ZM238.5 18.1016H240.564V24.5273C240.564 26.6943 238.917 28.1436 236.463 28.1367C234.002 28.1436 232.375 26.6943 232.375 24.5273V18.1016H234.426V24.3633C234.433 25.5049 235.239 26.3252 236.463 26.332C237.7 26.3252 238.507 25.5049 238.5 24.3633V18.1016ZM241.85 19.7969V18.1016H249.957V19.7969H246.922V28H244.885V19.7969H241.85ZM251.229 28V18.1016H255.111C257.36 18.1016 258.652 19.4893 258.652 21.4375C258.652 23.4131 257.34 24.7734 255.057 24.7734H253.279V28H251.229ZM253.279 23.1191H254.729C255.945 23.1191 256.54 22.4355 256.533 21.4375C256.54 20.4531 255.945 19.79 254.729 19.7832H253.279V23.1191ZM266.076 18.1016H268.141V24.5273C268.141 26.6943 266.493 28.1436 264.039 28.1367C261.578 28.1436 259.951 26.6943 259.951 24.5273V18.1016H262.002V24.3633C262.009 25.5049 262.815 26.3252 264.039 26.332C265.276 26.3252 266.083 25.5049 266.076 24.3633V18.1016ZM269.426 19.7969V18.1016H277.533V19.7969H274.498V28H272.461V19.7969H269.426Z" fill="white"/>
</svg>
