<svg width="24" height="24" viewBox="0 0 24 24" fill="none" xmlns="http://www.w3.org/2000/svg">
<circle cx="12" cy="12" r="12" fill="url(#paint0_linear_1370_1598)"/>
<path d="M5.01691 6C5.00676 6 5 6.00667 5 6.01668V8.59996C5 8.6083 5.00676 8.61664 5.01522 8.61664C8.20959 8.71336 10.8628 10.9247 11.5849 13.8799C11.59 13.8983 11.617 13.8966 11.617 13.8766V12.5107C11.617 8.91516 8.66279 6 5.01691 6Z" fill="white"/>
<path d="M17.2786 7.99458V12.429C17.2786 14.4886 15.9545 16.2497 14.1028 16.9285V12.4941C14.1028 10.4344 15.4269 8.67334 17.2786 7.99458ZM19.0001 6H18.9662C15.3305 6 12.3813 8.90682 12.3813 12.4941V18.9231H12.4152C16.0509 18.9231 19.0001 16.0163 19.0001 12.429V6Z" fill="white"/>
<path d="M11.4512 18.9215H11.6322V18.8965C10.276 16.0431 8.32111 14.909 5.36011 14.4938C6.49987 17.3622 8.38199 18.593 11.4495 18.9215H11.4512Z" fill="white"/>
<defs>
<linearGradient id="paint0_linear_1370_1598" x1="-2.01874e-06" y1="24" x2="-1.33288" y2="1.50075" gradientUnits="userSpaceOnUse">
<stop stop-color="#2774FF"/>
<stop offset="1" stop-color="#2FDAC5"/>
</linearGradient>
</defs>
</svg>
