<svg width="173" height="68" viewBox="0 0 173 68" fill="none" xmlns="http://www.w3.org/2000/svg">
<path d="M73.2904 33.1553H67.9384C67.0189 31.5756 64.959 30.359 62.3106 30.359C58.3381 30.359 55.3954 33.2461 55.3954 37.2588C55.3954 41.2716 58.3381 44.2493 62.3106 44.2493C65.7131 44.2493 68.0672 42.1794 68.5822 40.0732H61.906V36.006H73.787V37.277C73.787 43.8136 68.8212 48.6071 62.2187 48.6071C55.6161 48.6071 50.54 43.8136 50.54 37.277C50.54 30.7404 55.5058 25.9468 62.2187 25.9468C67.9201 25.9468 72.0582 29.1244 73.3088 33.1734L73.2904 33.1553Z" fill="#231815"/>
<path d="M86.9001 26.4914V48.0622H82.0264V26.4914H86.9001Z" fill="#231815"/>
<path d="M95.1396 37.2586C95.1396 30.722 100.105 25.9285 106.818 25.9285C112.814 25.9285 116.842 29.5055 117.724 34.0448H112.796C112.281 31.9749 110.055 30.3407 106.929 30.3407C102.956 30.3407 100.013 33.2277 100.013 37.2405C100.013 41.2532 102.956 44.1402 106.929 44.1402C110.074 44.1402 112.63 42.1066 113.016 40.1457H117.945C117.283 44.4852 112.887 48.5525 106.818 48.5525C100.087 48.5525 95.1396 43.7589 95.1396 37.2223V37.2586Z" fill="#231815"/>
<path d="M125.835 26.4914H130.709V38.5115C130.709 41.9432 132.64 44.2492 135.822 44.2492C139.003 44.2492 140.935 41.9432 140.935 38.5115V26.4914H145.808V38.5115C145.808 44.6305 141.817 48.5888 135.803 48.5888C129.789 48.5888 125.798 44.6123 125.798 38.5115V26.4914H125.835Z" fill="#231815"/>
<path d="M172.035 33.0099H166.995C166.701 31.1397 165.285 29.9958 162.949 29.9958C160.613 29.9958 159.418 30.9036 159.418 32.1928C159.418 33.8088 161.11 34.3535 165.377 35.2432C170.416 36.2782 172.126 38.7294 172.126 41.9614C172.126 46.0831 168.191 48.6069 163.317 48.6069C157.928 48.6069 153.992 45.7199 153.772 41.1261H158.793C159.068 43.1961 160.889 44.5579 163.666 44.5579C165.653 44.5579 167.124 43.5774 167.124 42.1793C167.124 40.4543 165.653 39.7644 161.772 39.0562C157.027 38.1847 154.452 36.26 154.452 32.2109C154.452 28.1619 158.37 26.0012 163.299 26.0012C168.227 26.0012 171.814 28.9426 172.053 33.0462L172.035 33.0099Z" fill="#231815"/>
<path d="M17.3616 43.1416C7.77963 43.1416 0 35.4429 0 26.0012C0 16.5594 7.77963 8.86074 17.3616 8.86074C26.9436 8.86074 34.7232 16.5413 34.7232 26.0012C34.7232 35.4611 26.9436 43.1416 17.3616 43.1416ZM17.3616 15.9965C11.7706 15.9965 7.22788 20.4814 7.22788 26.0012C7.22788 31.521 11.7706 36.0058 17.3616 36.0058C22.9527 36.0058 27.4954 31.521 27.4954 26.0012C27.4954 20.4814 22.9527 15.9965 17.3616 15.9965Z" fill="#1881CB"/>
<path d="M24.6079 67.7447V60.6089C26.208 60.6089 27.4954 59.3197 27.4954 57.7582C27.4954 56.1967 26.1896 54.9075 24.6079 54.9075H1.71041V47.7717H24.6079C30.1805 47.7717 34.7232 52.2565 34.7232 57.7582C34.7232 63.2598 30.1805 67.7447 24.6079 67.7447Z" fill="#1881CB"/>
<path d="M31.4312 7.7713C33.6048 7.7713 35.3669 6.03164 35.3669 3.88565C35.3669 1.73967 33.6048 0 31.4312 0C29.2575 0 27.4954 1.73967 27.4954 3.88565C27.4954 6.03164 29.2575 7.7713 31.4312 7.7713Z" fill="#1881CB"/>
</svg>
